# xmcd
#
# Track frame offsets: 
#        150
#        16343
#        29609
#        45827
#        58053
#        75380
#        90661
#        109909
#        124517
#        136457
#
# Disc length: 2075 seconds
#
# Revision: 0
# Processed by: cddbd v1.5.2PL0 Copyright (c) Steve Scherf et al.
# Submitted via: ExactAudioCopy v0.99pb4
#
DISCID=7708190a
DTITLE=Rivers Rutherford - Just Another Coaster
DYEAR=2006
DGENRE=Country
TTITLE0=Heavy Liftin'
TTITLE1=Outside the Box
TTITLE2=One That Got Away
TTITLE3=That's a Woman
TTITLE4=Ain't Nothing 'Bout You
TTITLE5=Real Good Man
TTITLE6=Knowing I'll Be Holding You
TTITLE7=Devil's Up to Somethin'
TTITLE8=Richest Man
TTITLE9=What a Day
EXTD=
EXTT0=
EXTT1=
EXTT2=
EXTT3=
EXTT4=
EXTT5=
EXTT6=
EXTT7=
EXTT8=
EXTT9=
PLAYORDER=
